<svg width="78" height="78" viewBox="0 0 78 78" fill="none" xmlns="http://www.w3.org/2000/svg">
<path d="M50.0928 43.5457C49.8095 43.8289 49.6481 44.2218 49.6481 44.6223C49.6481 45.0243 49.8095 45.4157 50.0928 45.699C50.3775 45.9836 50.7689 46.1451 51.1694 46.1451C51.5714 46.1451 51.9628 45.9836 52.2476 45.699C52.5308 45.4157 52.6922 45.0228 52.6922 44.6223C52.6922 44.2218 52.5308 43.8304 52.2476 43.5457C51.9643 43.2626 51.5714 43.101 51.1694 43.101C50.7689 43.101 50.376 43.2624 50.0928 43.5457Z" fill="white"/>
<path d="M77.0362 72.3756L76.9401 72.2795L72.9183 55.3785C71.198 48.149 64.8062 43.0999 57.3749 43.0999H57.2613C56.4203 43.0999 55.7385 43.7819 55.7385 44.6228C55.7385 45.4637 56.4203 46.1456 57.2613 46.1456H57.3749C63.3897 46.1456 68.5629 50.2323 69.9553 56.0838L72.8317 68.1711L59.8622 55.2016C59.5766 54.916 59.1892 54.7555 58.7854 54.7555H52.0057C51.8129 54.7555 51.6259 54.7935 51.4519 54.8615C47.6801 52.6831 43.3809 51.5303 39 51.5303C34.61 51.5303 30.3218 52.6802 26.546 54.8608C26.3725 54.7933 26.1863 54.7555 25.9943 54.7555H19.2146C18.8108 54.7555 18.4234 54.916 18.1378 55.2016L5.15905 68.1804L8.01725 56.0999C9.40394 50.239 14.5788 46.1456 20.6016 46.1456H32.2846C34.1371 47.7778 36.4898 48.6715 38.9808 48.6715C41.6911 48.6715 44.2392 47.6161 46.1558 45.6996C46.4413 45.4139 46.6018 45.0266 46.6018 44.6228V36.8093C49.9254 34.7271 52.342 31.3268 53.1137 27.3461H54.2979C57.1529 27.3461 59.4755 25.0235 59.4755 22.1685V21.3472C59.4755 18.4922 57.1529 16.1696 54.2979 16.1696H53.3775V14.4121C53.3775 6.47374 46.9192 0.015564 38.981 0.015564C31.0428 0.015564 24.5844 6.47374 24.5844 14.4121V16.1698H23.664C20.809 16.1698 18.4864 18.4924 18.4864 21.3474V22.1686C18.4864 25.0236 20.809 27.3463 23.664 27.3463H24.8482C25.62 31.3269 28.0365 34.7273 31.3601 36.8094V43.1001H20.6019C17.0196 43.1001 13.4994 44.324 10.6898 46.5464C7.88019 48.769 5.87858 51.9127 5.05382 55.3988L1.05928 72.2803L0.963954 72.3756C0.0210168 73.3185 -0.258575 74.7241 0.251726 75.9562C0.762178 77.1885 1.95364 77.9845 3.28718 77.9845H13.5978C14.136 77.9845 14.6343 77.7005 14.9084 77.2372L20.0191 68.6008L20.4868 68.9016C20.9424 69.1944 21.438 69.3854 21.9451 69.4828C21.0604 71.6366 20.5713 73.9928 20.5713 76.4617C20.5713 77.3026 21.2531 77.9845 22.0941 77.9845C22.9352 77.9845 23.617 77.3026 23.617 76.4617C23.617 72.7677 24.926 69.3741 27.1041 66.7194L33.5687 73.1841C32.9888 74.1413 32.6545 75.2632 32.6545 76.4617C32.6545 77.3026 33.3363 77.9845 34.1773 77.9845C35.0184 77.9845 35.7002 77.3026 35.7002 76.4617C35.7002 74.6423 37.1804 73.162 38.9999 73.162C40.8193 73.162 42.2995 74.6423 42.2995 76.4617C42.2995 77.3026 42.9813 77.9845 43.8224 77.9845C44.6634 77.9845 45.3452 77.3026 45.3452 76.4617C45.3452 75.2632 45.0109 74.1413 44.431 73.1841L50.8956 66.7195C53.0737 69.3743 54.3827 72.7679 54.3827 76.4618C54.3827 77.3027 55.0645 77.9846 55.9056 77.9846C56.7466 77.9846 57.4284 77.3027 57.4284 76.4618C57.4284 73.993 56.9393 71.6367 56.0546 69.483C56.5617 69.3855 57.0573 69.1946 57.5129 68.9017L57.9806 68.601L63.0913 77.2374C63.3654 77.7006 63.8637 77.9846 64.4019 77.9846H74.7125C76.0461 77.9846 77.2377 77.1885 77.748 75.9564C78.2587 74.7241 77.9791 73.3187 77.0362 72.3756ZM56.4296 21.3474V22.1686C56.4296 23.3443 55.4732 24.3006 54.2976 24.3006H53.3772V19.2154H54.2976C55.4732 19.2154 56.4296 20.1719 56.4296 21.3474ZM27.6298 14.4121C27.6298 8.15311 32.7218 3.06123 38.9807 3.06123C45.2395 3.06123 50.3315 8.15327 50.3315 14.4121V16.1698H46.3324C45.5345 16.1698 44.7689 15.9572 44.1012 15.5586C44.9438 14.9497 45.7436 14.269 46.4929 13.5196C47.0876 12.9249 47.0876 11.9606 46.4929 11.3658C45.8983 10.7713 44.934 10.7713 44.3394 11.3658C41.2418 14.4636 37.1231 16.1696 32.7422 16.1696H27.6299V14.4121H27.6298ZM21.5318 22.1686V21.3474C21.5318 20.1717 22.4881 19.2154 23.6637 19.2154H24.5841V24.3006H23.6637C22.4881 24.3006 21.5318 23.3443 21.5318 22.1686ZM27.6299 24.6039V19.2154H32.7422C35.7576 19.2154 38.6682 18.5338 41.298 17.2433C42.6718 18.5173 44.4484 19.2154 46.3326 19.2154H50.3317V24.6009C50.3317 30.8599 45.2396 35.9518 38.9808 35.9518C32.7227 35.9519 27.6315 30.8614 27.6299 24.6039ZM38.9807 38.9976C40.5793 38.9976 42.1178 38.7352 43.5559 38.252V43.9561C40.9218 46.1785 37.0394 46.1785 34.4053 43.9561V38.252C35.8435 38.7352 37.382 38.9976 38.9807 38.9976ZM49.6283 57.3282L48.3931 59.4414C48.218 59.7411 48.0852 60.0568 47.9912 60.3803C45.33 58.8864 42.263 58.0328 39 58.0328C35.737 58.0328 32.6701 58.8864 30.0088 60.3803C29.9148 60.0568 29.782 59.7413 29.6069 59.4416L28.372 57.3288C31.6108 55.5267 35.2624 54.5761 39 54.5761C42.7302 54.5761 46.3921 55.5275 49.6283 57.3282ZM12.7295 74.9388H3.28718C3.24333 74.9388 3.12683 74.9388 3.06546 74.7907C3.00409 74.6425 3.08648 74.5601 3.11754 74.5292L11.7732 65.8736L15.7441 69.8445L12.7295 74.9388ZM20.337 65.1845C19.9891 64.9608 19.5653 64.888 19.1625 64.9836C18.7601 65.079 18.4136 65.3339 18.203 65.6899L17.3457 67.1387L13.9271 63.7201L19.8457 57.8015H25.1208L26.9777 60.9787C27.2183 61.3902 27.1726 61.9109 26.8643 62.2744L23.6004 66.1212C23.2369 66.5496 22.6064 66.6432 22.1339 66.3399L20.337 65.1845ZM35.7224 71.0305L29.2578 64.5658C31.9126 62.3877 35.3062 61.0786 39.0002 61.0786C42.6941 61.0786 46.0877 62.3877 48.7425 64.5658L42.2777 71.0305C41.3205 70.4506 40.1986 70.1165 39.0002 70.1165C37.8015 70.1163 36.6797 70.4506 35.7224 71.0305ZM57.6632 65.1843L55.8663 66.3396C55.3937 66.6435 54.7633 66.5494 54.3999 66.121L51.136 62.2742C50.8277 61.9107 50.782 61.3901 51.0226 60.9784L52.8795 57.8014H58.1546L64.0733 63.72L60.6547 67.1386L59.7973 65.6898C59.5867 65.3337 59.2402 65.0788 58.8378 64.9835C58.435 64.8881 58.0112 64.9608 57.6632 65.1843ZM74.9345 74.7908C74.8732 74.939 74.7568 74.939 74.7128 74.939H65.2705L62.2559 69.8448L66.2268 65.8739L74.8825 74.5295C74.9135 74.5603 74.9959 74.6426 74.9345 74.7908Z" fill="white"/>
</svg>
