<?xml version="1.0" standalone="no"?>
<!DOCTYPE svg PUBLIC "-//W3C//DTD SVG 20010904//EN"
 "http://www.w3.org/TR/2001/REC-SVG-20010904/DTD/svg10.dtd">
<svg version="1.0" xmlns="http://www.w3.org/2000/svg"
 width="512.000000pt" height="512.000000pt" viewBox="0 0 512.000000 512.000000"
 preserveAspectRatio="xMidYMid meet">
<metadata>
Created by potrace 1.11, written by Peter Selinger 2001-2013
</metadata>
<g transform="translate(0.000000,512.000000) scale(0.100000,-0.100000)"
fill="#000000" stroke="none">
<path d="M2552 5094 c-6 -7 -12 -18 -12 -25 0 -6 -6 -25 -14 -42 -15 -33 -40
-108 -39 -117 1 -3 -7 -21 -18 -41 -10 -20 -15 -40 -11 -43 3 -4 2 -10 -3 -14
-9 -6 -59 -139 -70 -186 -2 -11 -15 -49 -29 -85 -13 -36 -32 -88 -41 -116 -10
-27 -20 -57 -23 -65 -3 -8 -6 -19 -8 -25 -1 -5 -12 -36 -23 -69 -11 -32 -19
-62 -16 -65 2 -4 26 -5 52 -3 63 6 441 6 521 0 34 -2 62 -2 62 1 0 12 -30 101
-100 301 -39 113 -73 210 -74 215 -3 12 -14 41 -26 70 -4 11 -32 88 -62 171
-43 123 -55 149 -66 138z"/>
<path d="M777 4364 c-2 -3 6 -27 19 -54 13 -28 24 -52 24 -54 0 -2 25 -57 56
-122 91 -192 114 -244 114 -254 0 -6 5 -10 10 -10 6 0 10 -6 10 -14 0 -7 15
-43 34 -79 18 -37 31 -69 28 -72 -3 -3 0 -5 6 -5 6 0 13 -13 17 -30 4 -16 11
-30 16 -30 5 0 9 -3 8 -7 -2 -17 14 -53 24 -53 6 0 7 -3 4 -7 -4 -3 2 -20 13
-38 11 -18 17 -35 13 -38 -3 -4 -1 -7 6 -7 14 0 18 3 91 90 77 91 247 260 261
260 7 0 10 3 6 6 -3 4 19 27 50 52 52 42 54 46 37 59 -10 7 -24 13 -31 13 -7
0 -13 5 -13 11 0 6 -7 9 -15 5 -8 -3 -15 -1 -15 4 0 5 -11 12 -25 16 -14 3
-25 11 -25 17 0 6 -3 8 -6 5 -3 -4 -75 29 -159 72 -85 42 -157 75 -160 72 -3
-3 -5 0 -5 6 0 7 -5 12 -10 12 -9 0 -217 98 -341 161 -20 10 -39 16 -42 13z"/>
<path d="M4245 4320 c-55 -26 -126 -59 -157 -74 -32 -15 -60 -27 -64 -26 -4 1
-10 -2 -13 -7 -3 -4 -26 -18 -51 -30 -210 -101 -321 -154 -327 -155 -5 0 -25
-12 -45 -25 -21 -13 -38 -21 -38 -17 0 4 -36 -18 -69 -42 -5 -4 53 -53 64 -54
19 -1 365 -362 365 -381 0 -4 7 -9 15 -13 16 -6 48 31 39 46 -3 4 0 8 5 8 6 0
11 4 11 9 0 6 35 81 77 168 42 87 77 161 77 164 2 14 52 114 59 117 4 2 7 12
7 22 0 10 6 25 13 32 7 7 14 16 15 21 1 8 11 30 81 185 24 52 41 95 39 97 -1
1 -48 -18 -103 -45z"/>
<path d="M2520 4024 c0 -5 -24 -10 -53 -10 -53 -2 -109 -8 -162 -19 -16 -3
-42 -7 -57 -8 -15 -1 -28 -5 -28 -8 0 -3 -6 -6 -12 -7 -15 -1 -52 -10 -55 -12
-2 -2 -6 -3 -10 -4 -125 -28 -363 -155 -488 -261 -95 -81 -235 -226 -235 -245
0 -4 -3 -10 -7 -12 -18 -8 -97 -124 -109 -160 -4 -10 -11 -18 -16 -18 -5 0 -7
-4 -3 -9 3 -5 1 -12 -5 -16 -6 -4 -8 -11 -5 -16 4 -5 2 -9 -3 -9 -5 0 -17 -19
-27 -42 -10 -24 -27 -63 -37 -86 -11 -24 -20 -53 -21 -63 -1 -10 -4 -19 -7
-19 -4 0 -7 -6 -8 -12 -3 -31 -11 -68 -18 -90 -4 -12 -8 -32 -10 -43 -1 -11
-5 -42 -9 -70 -4 -27 -8 -77 -9 -110 -2 -34 -5 -66 -9 -72 -4 -7 -3 -14 3 -18
7 -4 7 -12 0 -25 -7 -13 -7 -21 0 -25 8 -5 8 -11 0 -20 -8 -10 -8 -15 0 -20 8
-5 8 -11 1 -19 -6 -7 -8 -16 -4 -19 3 -4 7 -31 9 -60 1 -28 5 -65 8 -82 4 -16
9 -45 11 -63 3 -18 10 -42 15 -52 6 -11 9 -23 8 -27 -2 -11 24 -96 34 -107 4
-6 8 -20 8 -33 0 -13 5 -23 10 -23 6 0 10 -7 10 -15 0 -8 4 -23 9 -33 5 -9 21
-42 36 -72 33 -65 142 -232 179 -275 110 -125 216 -218 336 -297 70 -45 190
-110 190 -102 0 4 7 1 15 -6 8 -7 15 -9 15 -6 0 4 7 0 16 -8 8 -9 22 -16 29
-16 8 0 26 -5 42 -12 15 -6 39 -13 53 -15 13 -2 29 -8 35 -13 5 -4 26 -10 46
-13 20 -2 41 -7 46 -10 23 -14 423 -29 423 -16 0 3 13 4 30 3 16 -1 49 2 72 8
24 5 54 11 68 14 45 7 55 9 68 17 6 5 17 5 22 2 6 -3 10 -1 10 4 0 6 3 10 8 9
18 -5 223 79 234 96 4 6 8 8 8 3 0 -4 18 4 40 18 22 14 42 25 45 25 3 0 11 4
18 10 7 5 49 37 94 70 107 78 224 194 301 300 34 47 67 91 72 98 6 6 7 12 3
12 -4 0 -3 4 3 8 14 10 96 172 86 172 -4 0 -1 4 6 9 7 4 14 14 16 22 1 8 10
37 20 64 22 61 26 74 23 79 -1 1 4 10 12 19 8 10 9 17 3 17 -6 0 -5 12 4 30 9
16 13 34 9 40 -3 5 -3 10 2 10 7 0 14 43 17 113 0 15 3 27 6 27 9 0 5 264 -4
279 -7 10 -6 12 4 6 9 -6 11 -4 5 5 -4 6 -9 33 -12 59 -4 45 -10 86 -13 86 -1
0 -3 14 -6 30 -5 35 -9 55 -16 75 -3 8 -18 53 -33 100 -36 110 -98 233 -174
347 -74 110 -298 343 -330 343 -5 0 -11 4 -13 9 -5 14 -116 85 -197 125 -81
41 -221 97 -221 89 0 -3 -7 0 -15 7 -8 7 -22 10 -30 6 -8 -3 -15 -1 -15 5 0 6
-6 9 -14 6 -8 -3 -17 -3 -20 1 -4 3 -14 7 -24 9 -55 11 -70 14 -97 18 -16 3
-65 7 -107 9 -43 3 -81 7 -86 10 -4 2 -14 1 -22 -4 -9 -5 -19 -5 -27 2 -7 6
-13 7 -13 2z"/>
<path d="M885 2870 c-20 -9 -411 -149 -430 -154 -5 -2 -18 -6 -27 -10 -9 -4
-22 -9 -30 -10 -7 -1 -22 -7 -33 -13 -11 -5 -47 -18 -80 -28 -33 -10 -64 -21
-70 -25 -5 -4 -23 -11 -40 -15 -37 -10 -34 -9 -68 -23 -16 -7 -32 -12 -36 -12
-5 0 -14 -6 -20 -13 -8 -11 -6 -16 12 -25 26 -12 134 -51 159 -57 9 -2 27 -9
40 -16 13 -7 23 -11 23 -10 0 1 13 -2 28 -8 16 -6 32 -11 37 -11 5 0 26 -7 47
-16 55 -24 70 -30 153 -58 41 -14 145 -50 231 -80 l156 -55 -5 102 c-6 118 -6
334 -1 457 4 91 -1 100 -46 80z"/>
<path d="M4196 2871 c-8 -13 -6 -615 2 -628 5 -8 41 1 127 33 66 24 127 45
135 47 8 2 22 7 30 10 8 4 42 16 75 27 33 12 69 26 80 31 11 6 30 11 43 12 12
0 22 4 22 7 0 5 89 38 125 46 6 1 28 10 50 20 22 10 47 18 55 19 8 0 26 7 40
15 14 7 25 12 25 11 0 -1 13 2 28 8 16 6 33 11 38 11 20 0 8 20 -21 35 -16 9
-30 13 -30 10 0 -3 -10 0 -22 7 -13 7 -29 11 -35 10 -7 -2 -13 2 -13 8 0 6 -4
8 -10 5 -5 -3 -10 -2 -10 2 0 5 -12 10 -27 11 -15 1 -30 7 -34 13 -3 6 -8 10
-10 9 -7 -3 -64 13 -74 21 -5 4 -12 7 -15 8 -3 0 -12 2 -20 5 -8 3 -35 12 -60
20 -62 21 -242 85 -260 93 -8 3 -19 7 -25 9 -5 1 -54 18 -107 38 -54 19 -99
32 -102 27z"/>
<path d="M1167 1590 c-6 -16 -15 -30 -20 -30 -4 0 -6 -4 -2 -9 3 -5 -2 -17
-11 -25 -8 -9 -13 -16 -9 -16 3 0 -5 -21 -19 -47 -14 -27 -35 -70 -48 -98 -13
-27 -27 -53 -31 -56 -5 -3 -9 -10 -9 -15 -1 -14 -15 -48 -57 -137 -93 -197
-182 -399 -178 -404 5 -4 89 33 258 116 69 33 131 61 138 61 6 0 11 5 11 10 0
6 4 10 9 10 18 0 418 193 434 209 4 4 -15 28 -44 52 -103 87 -304 293 -363
372 -34 45 -44 46 -59 7z"/>
<path d="M3905 1594 c-122 -154 -372 -404 -402 -404 -6 0 -13 -7 -16 -15 -4
-10 16 -25 71 -51 42 -20 151 -73 242 -117 398 -192 541 -259 546 -255 1 2
-11 32 -27 67 -16 35 -29 70 -29 77 0 8 -4 14 -9 14 -5 0 -13 10 -16 23 -7 23
-37 88 -88 190 -15 31 -25 57 -20 57 4 0 3 4 -2 8 -6 4 -24 36 -39 72 -16 36
-34 68 -40 72 -6 4 -8 8 -4 8 6 0 -81 186 -116 250 -19 33 -27 34 -51 4z"/>
<path d="M2247 891 c7 -28 87 -266 126 -373 14 -37 22 -69 19 -72 -3 -3 1 -6
8 -6 7 0 10 -3 7 -7 -4 -3 -2 -12 4 -20 6 -7 8 -13 4 -13 -4 0 -2 -7 5 -15 7
-8 10 -15 7 -15 -4 0 2 -20 13 -44 10 -24 16 -47 13 -50 -4 -3 -1 -6 6 -6 7 0
10 -4 7 -8 -3 -5 2 -21 10 -37 8 -16 16 -36 18 -44 2 -9 6 -25 10 -36 5 -11
12 -32 17 -48 20 -60 32 -87 39 -87 9 0 43 75 43 95 0 8 5 15 10 15 6 0 8 3 4
6 -3 4 1 23 9 43 9 20 40 106 69 191 44 129 97 281 121 350 3 8 5 15 4 15 0 0
13 40 30 89 16 50 30 93 30 97 0 4 -12 5 -27 3 -16 -3 -64 -7 -108 -8 -44 -1
-86 -5 -93 -10 -7 -4 -12 -4 -12 1 0 4 -62 8 -138 9 -75 0 -165 3 -199 6 l-63
6 7 -27z"/>
</g>
</svg>
